<svg width="861" height="860" viewBox="0 0 861 860" fill="none" xmlns="http://www.w3.org/2000/svg">
<g filter="url(#filter0_d_344_286)">
<path d="M430.5 214.5L456.572 258.022L494.314 224.118L506.4 273.392L552.459 252.119L549.484 302.766L599.767 296.014L581.996 343.534L632.034 351.904L601.046 392.074L646.395 414.821L604.943 444.073L641.572 479.176L593.34 494.91L617.995 539.25L567.267 540.068L577.757 589.706L529.043 575.536L524.436 626.06L482.062 598.16L462.768 645.082L430.5 605.932L398.232 645.082L378.938 598.16L336.564 626.06L331.957 575.536L283.243 589.706L293.733 540.068L243.005 539.25L267.66 494.91L219.428 479.176L256.057 444.073L214.605 414.821L259.954 392.074L228.966 351.904L279.004 343.534L261.233 296.014L311.516 302.766L308.541 252.119L354.6 273.392L366.686 224.118L404.428 258.022L430.5 214.5Z" fill="black"/>
</g>
<path d="M298.332 404.432H308.682V417.5H306.918V405.998H300.096V417.5H298.332V404.432ZM310.656 412.73C310.656 412.094 310.746 411.488 310.926 410.912C311.106 410.324 311.37 409.79 311.718 409.31C312.066 408.818 312.528 408.428 313.104 408.14C313.68 407.852 314.334 407.708 315.066 407.708C315.798 407.708 316.452 407.852 317.028 408.14C317.604 408.428 318.066 408.818 318.414 409.31C318.762 409.79 319.026 410.324 319.206 410.912C319.386 411.488 319.476 412.094 319.476 412.73C319.476 414.086 319.092 415.268 318.324 416.276C317.568 417.272 316.482 417.77 315.066 417.77C313.65 417.77 312.558 417.272 311.79 416.276C311.034 415.268 310.656 414.086 310.656 412.73ZM312.294 412.73C312.294 413.018 312.312 413.312 312.348 413.612C312.396 413.9 312.48 414.218 312.6 414.566C312.732 414.914 312.894 415.22 313.086 415.484C313.29 415.736 313.56 415.952 313.896 416.132C314.244 416.3 314.634 416.384 315.066 416.384C315.498 416.384 315.882 416.3 316.218 416.132C316.566 415.952 316.836 415.736 317.028 415.484C317.232 415.22 317.394 414.914 317.514 414.566C317.646 414.218 317.73 413.9 317.766 413.612C317.814 413.312 317.838 413.018 317.838 412.73C317.838 412.358 317.796 411.986 317.712 411.614C317.64 411.23 317.508 410.84 317.316 410.444C317.136 410.048 316.848 409.724 316.452 409.472C316.068 409.22 315.606 409.094 315.066 409.094C314.526 409.094 314.058 409.22 313.662 409.472C313.278 409.724 312.99 410.048 312.798 410.444C312.618 410.84 312.486 411.23 312.402 411.614C312.33 411.986 312.294 412.358 312.294 412.73ZM322.887 407.978V412.118L326.973 407.978H329.007L325.371 411.524L329.223 417.5H327.315L324.237 412.64L322.887 413.9V417.5H321.285V407.978H322.887ZM331.865 410.876H330.389C330.389 408.764 331.697 407.708 334.313 407.708C334.589 407.708 334.883 407.738 335.195 407.798C335.519 407.846 335.897 407.954 336.329 408.122C336.773 408.278 337.133 408.554 337.409 408.95C337.697 409.334 337.841 409.808 337.841 410.372V415.808C337.841 416.204 338.015 416.402 338.363 416.402C338.471 416.402 338.645 416.378 338.885 416.33V417.5C338.429 417.62 338.141 417.68 338.021 417.68C337.685 417.68 337.403 417.638 337.175 417.554C336.947 417.482 336.773 417.368 336.653 417.212C336.545 417.056 336.467 416.906 336.419 416.762C336.383 416.618 336.353 416.438 336.329 416.222C336.053 416.51 335.795 416.75 335.555 416.942C335.315 417.134 334.955 417.32 334.475 417.5C333.995 417.68 333.467 417.77 332.891 417.77C332.015 417.77 331.301 417.518 330.749 417.014C330.197 416.51 329.921 415.844 329.921 415.016C329.921 414.74 329.939 414.494 329.975 414.278C330.011 414.062 330.101 413.816 330.245 413.54C330.389 413.252 330.581 413.012 330.821 412.82C331.073 412.616 331.433 412.436 331.901 412.28C332.369 412.112 332.921 412.004 333.557 411.956C334.409 411.884 335.015 411.806 335.375 411.722C335.747 411.626 335.981 411.5 336.077 411.344C336.185 411.188 336.239 410.93 336.239 410.57C336.239 409.55 335.501 409.04 334.025 409.04C333.593 409.04 333.227 409.1 332.927 409.22C332.639 409.328 332.423 409.49 332.279 409.706C332.147 409.91 332.051 410.102 331.991 410.282C331.931 410.45 331.889 410.648 331.865 410.876ZM336.239 414.206V412.64C335.975 412.844 335.099 413.042 333.611 413.234C333.347 413.27 333.119 413.312 332.927 413.36C332.747 413.408 332.537 413.486 332.297 413.594C332.057 413.69 331.871 413.84 331.739 414.044C331.619 414.236 331.559 414.476 331.559 414.764C331.559 415.88 332.141 416.438 333.305 416.438C334.073 416.438 334.751 416.222 335.339 415.79C335.939 415.358 336.239 414.83 336.239 414.206ZM341.685 410.696H340.155C340.191 410.36 340.281 410.03 340.425 409.706C340.581 409.382 340.791 409.064 341.055 408.752C341.331 408.44 341.709 408.188 342.189 407.996C342.681 407.804 343.245 407.708 343.881 407.708C344.937 407.708 345.801 407.972 346.473 408.5C347.145 409.016 347.481 409.658 347.481 410.426C347.481 411.002 347.319 411.47 346.995 411.83C346.671 412.178 346.281 412.412 345.825 412.532C347.133 412.976 347.787 413.804 347.787 415.016C347.787 415.868 347.427 416.54 346.707 417.032C345.987 417.524 345.081 417.77 343.989 417.77C342.549 417.77 341.529 417.476 340.929 416.888C340.329 416.3 339.975 415.508 339.867 414.512H341.433C341.505 415.184 341.727 415.664 342.099 415.952C342.483 416.24 343.089 416.384 343.917 416.384C344.553 416.384 345.081 416.252 345.501 415.988C345.921 415.724 346.131 415.328 346.131 414.8C346.131 414.272 345.945 413.876 345.573 413.612C345.201 413.348 344.703 413.216 344.079 413.216H343.125V411.956H343.989C344.661 411.956 345.135 411.836 345.411 411.596C345.687 411.356 345.825 410.984 345.825 410.48C345.825 410 345.633 409.652 345.249 409.436C344.865 409.208 344.409 409.094 343.881 409.094C343.209 409.094 342.699 409.226 342.351 409.49C342.015 409.742 341.793 410.144 341.685 410.696ZM351.026 410.876H349.55C349.55 408.764 350.858 407.708 353.474 407.708C353.75 407.708 354.044 407.738 354.356 407.798C354.68 407.846 355.058 407.954 355.49 408.122C355.934 408.278 356.294 408.554 356.57 408.95C356.858 409.334 357.002 409.808 357.002 410.372V415.808C357.002 416.204 357.176 416.402 357.524 416.402C357.632 416.402 357.806 416.378 358.046 416.33V417.5C357.59 417.62 357.302 417.68 357.182 417.68C356.846 417.68 356.564 417.638 356.336 417.554C356.108 417.482 355.934 417.368 355.814 417.212C355.706 417.056 355.628 416.906 355.58 416.762C355.544 416.618 355.514 416.438 355.49 416.222C355.214 416.51 354.956 416.75 354.716 416.942C354.476 417.134 354.116 417.32 353.636 417.5C353.156 417.68 352.628 417.77 352.052 417.77C351.176 417.77 350.462 417.518 349.91 417.014C349.358 416.51 349.082 415.844 349.082 415.016C349.082 414.74 349.1 414.494 349.136 414.278C349.172 414.062 349.262 413.816 349.406 413.54C349.55 413.252 349.742 413.012 349.982 412.82C350.234 412.616 350.594 412.436 351.062 412.28C351.53 412.112 352.082 412.004 352.718 411.956C353.57 411.884 354.176 411.806 354.536 411.722C354.908 411.626 355.142 411.5 355.238 411.344C355.346 411.188 355.4 410.93 355.4 410.57C355.4 409.55 354.662 409.04 353.186 409.04C352.754 409.04 352.388 409.1 352.088 409.22C351.8 409.328 351.584 409.49 351.44 409.706C351.308 409.91 351.212 410.102 351.152 410.282C351.092 410.45 351.05 410.648 351.026 410.876ZM355.4 414.206V412.64C355.136 412.844 354.26 413.042 352.772 413.234C352.508 413.27 352.28 413.312 352.088 413.36C351.908 413.408 351.698 413.486 351.458 413.594C351.218 413.69 351.032 413.84 350.9 414.044C350.78 414.236 350.72 414.476 350.72 414.764C350.72 415.88 351.302 416.438 352.466 416.438C353.234 416.438 353.912 416.222 354.5 415.79C355.1 415.358 355.4 414.83 355.4 414.206ZM360.647 407.978H367.613V417.5H366.011V409.31H362.249V413.648C362.249 416.312 361.427 417.644 359.783 417.644C359.435 417.644 359.093 417.596 358.757 417.5V416.258C358.925 416.282 359.141 416.294 359.405 416.294C359.729 416.294 359.969 416.222 360.125 416.078C360.293 415.934 360.419 415.634 360.503 415.178C360.599 414.722 360.647 414.032 360.647 413.108V407.978ZM371.561 407.978V415.106H371.597L376.259 407.978H377.933V417.5H376.331V410.372H376.295L371.633 417.5H369.959V407.978H371.561ZM385.484 404.432H394.682V405.998H387.248V409.832H391.496C392.804 409.832 393.782 410.24 394.43 411.056C395.09 411.86 395.42 412.784 395.42 413.828C395.42 414.896 395.066 415.778 394.358 416.474C393.65 417.158 392.714 417.5 391.55 417.5H385.484V404.432ZM387.248 411.398V415.934H391.028C392.744 415.934 393.602 415.226 393.602 413.81C393.602 412.202 392.702 411.398 390.902 411.398H387.248ZM406.705 414.8C407.521 413.816 407.929 412.538 407.929 410.966C407.929 409.394 407.521 408.116 406.705 407.132C405.889 406.148 404.785 405.656 403.393 405.656C401.989 405.656 400.879 406.142 400.063 407.114C399.259 408.086 398.857 409.358 398.857 410.93C398.857 412.502 399.265 413.786 400.081 414.782C400.897 415.778 402.001 416.276 403.393 416.276C404.785 416.276 405.889 415.784 406.705 414.8ZM409.549 409.166C409.681 409.766 409.747 410.366 409.747 410.966C409.747 411.566 409.681 412.166 409.549 412.766C409.429 413.366 409.213 413.978 408.901 414.602C408.589 415.226 408.199 415.772 407.731 416.24C407.275 416.708 406.669 417.092 405.913 417.392C405.169 417.692 404.329 417.842 403.393 417.842C402.457 417.842 401.611 417.692 400.855 417.392C400.111 417.092 399.505 416.708 399.037 416.24C398.581 415.772 398.197 415.226 397.885 414.602C397.573 413.978 397.351 413.366 397.219 412.766C397.099 412.166 397.039 411.566 397.039 410.966C397.039 410.366 397.099 409.766 397.219 409.166C397.351 408.566 397.573 407.954 397.885 407.33C398.197 406.706 398.581 406.16 399.037 405.692C399.505 405.224 400.111 404.84 400.855 404.54C401.611 404.24 402.457 404.09 403.393 404.09C404.329 404.09 405.169 404.24 405.913 404.54C406.669 404.84 407.275 405.224 407.731 405.692C408.199 406.16 408.589 406.706 408.901 407.33C409.213 407.954 409.429 408.566 409.549 409.166ZM412.904 404.432H421.418V417.5H419.654V405.998H414.668V411.452C414.668 413.828 414.404 415.478 413.876 416.402C413.36 417.314 412.604 417.77 411.608 417.77C411.26 417.77 410.858 417.728 410.402 417.644V416.168C410.594 416.216 410.87 416.24 411.23 416.24C411.89 416.24 412.334 415.832 412.562 415.016C412.79 414.188 412.904 412.814 412.904 410.894V404.432ZM425.85 404.432V409.832H430.098C431.406 409.832 432.384 410.24 433.032 411.056C433.692 411.86 434.022 412.784 434.022 413.828C434.022 414.896 433.668 415.778 432.96 416.474C432.252 417.158 431.316 417.5 430.152 417.5H424.086V404.432H425.85ZM425.85 411.398V415.934H429.63C431.346 415.934 432.204 415.226 432.204 413.81C432.204 412.202 431.304 411.398 429.504 411.398H425.85ZM437.926 404.432V415.934H442.732V404.432H444.496V415.934H449.302V404.432H451.066V417.5H436.162V404.432H437.926ZM455.487 404.432V415.124H455.559L462.183 404.432H464.199V417.5H462.435V406.952H462.399L455.757 417.5H453.723V404.432H455.487ZM476.519 415.934V417.5H466.871V404.432H476.393V405.998H468.635V409.832H475.781V411.398H468.635V415.934H476.519ZM485.256 407.978V415.106H485.292L489.954 407.978H491.628V417.5H490.026V410.372H489.99L485.328 417.5H483.654V407.978H485.256ZM500.62 409.31V411.92H502.942C503.638 411.92 504.13 411.812 504.418 411.596C504.706 411.38 504.85 411.008 504.85 410.48C504.85 410.084 504.706 409.79 504.418 409.598C504.142 409.406 503.662 409.31 502.978 409.31H500.62ZM500.62 413.18V416.168H503.482C504.766 416.168 505.408 415.676 505.408 414.692C505.408 413.684 504.712 413.18 503.32 413.18H500.62ZM499.018 417.5V407.978H503.338C504.346 407.978 505.114 408.212 505.642 408.68C506.182 409.136 506.452 409.712 506.452 410.408C506.452 410.936 506.296 411.38 505.984 411.74C505.684 412.088 505.306 412.328 504.85 412.46C506.29 412.796 507.01 413.636 507.01 414.98C507.01 415.748 506.704 416.36 506.092 416.816C505.492 417.272 504.634 417.5 503.518 417.5H499.018ZM510.428 407.978V412.118L514.514 407.978H516.548L512.912 411.524L516.764 417.5H514.856L511.778 412.64L510.428 413.9V417.5H508.826V407.978H510.428ZM517.417 407.978H519.235L521.773 415.736H521.809L524.347 407.978H526.111C526.015 408.242 525.775 408.908 525.391 409.976C525.019 411.044 524.725 411.878 524.509 412.478C524.293 413.078 524.011 413.84 523.663 414.764C523.327 415.688 523.015 416.522 522.727 417.266C522.439 417.998 522.169 418.652 521.917 419.228C521.545 420.092 521.179 420.668 520.819 420.956C520.459 421.244 519.841 421.388 518.965 421.388C518.845 421.388 518.617 421.34 518.281 421.244V419.786C518.581 419.894 518.905 419.948 519.253 419.948C519.649 419.948 519.931 419.834 520.099 419.606C520.267 419.378 520.549 418.76 520.945 417.752L517.417 407.978ZM535.073 411.182H533.525C533.309 409.826 532.559 409.148 531.275 409.148C530.651 409.148 530.135 409.34 529.727 409.724C529.319 410.096 529.037 410.534 528.881 411.038C528.737 411.542 528.665 412.106 528.665 412.73C528.665 415.166 529.529 416.384 531.257 416.384C531.809 416.384 532.289 416.186 532.697 415.79C533.117 415.394 533.393 414.842 533.525 414.134H535.073C535.025 414.554 534.923 414.962 534.767 415.358C534.623 415.742 534.407 416.126 534.119 416.51C533.843 416.894 533.453 417.2 532.949 417.428C532.445 417.656 531.863 417.77 531.203 417.77C529.895 417.77 528.857 417.326 528.089 416.438C527.333 415.55 526.955 414.404 526.955 413C526.955 411.44 527.339 410.168 528.107 409.184C528.875 408.2 530.009 407.708 531.509 407.708C532.661 407.708 533.525 408.05 534.101 408.734C534.677 409.406 535.001 410.222 535.073 411.182ZM538.254 407.978V411.812H542.7V407.978H544.302V417.5H542.7V413.144H538.254V417.5H536.652V407.978H538.254ZM557.365 407.978V417.5H555.763V407.978H557.365ZM548.239 407.978V411.812H550.507C551.683 411.812 552.577 412.082 553.189 412.622C553.813 413.162 554.125 413.87 554.125 414.746C554.125 415.55 553.831 416.21 553.243 416.726C552.655 417.242 551.755 417.5 550.543 417.5H546.637V407.978H548.239ZM548.239 413.144V416.168H550.525C551.245 416.168 551.749 416.054 552.037 415.826C552.337 415.586 552.487 415.196 552.487 414.656C552.487 413.648 551.833 413.144 550.525 413.144H548.239ZM566.087 414.512H567.689C567.161 416.684 565.733 417.77 563.405 417.77C562.097 417.77 561.065 417.326 560.309 416.438C559.553 415.55 559.175 414.404 559.175 413C559.175 411.428 559.553 410.156 560.309 409.184C561.077 408.2 562.217 407.708 563.729 407.708C565.061 407.708 566.075 408.206 566.771 409.202C567.467 410.186 567.815 411.542 567.815 413.27H560.885C560.885 414.266 561.119 415.034 561.587 415.574C562.055 416.114 562.739 416.384 563.639 416.384C564.323 416.384 564.899 416.174 565.367 415.754C565.847 415.334 566.087 414.92 566.087 414.512ZM560.885 411.992H566.177C566.057 410.096 565.163 409.148 563.495 409.148C562.775 409.148 562.157 409.436 561.641 410.012C561.137 410.576 560.885 411.236 560.885 411.992ZM299.772 430.978V435.118L303.858 430.978H305.892L302.256 434.524L306.108 440.5H304.2L301.122 435.64L299.772 436.9V440.5H298.17V430.978H299.772ZM308.75 433.876H307.274C307.274 431.764 308.582 430.708 311.198 430.708C311.474 430.708 311.768 430.738 312.08 430.798C312.404 430.846 312.782 430.954 313.214 431.122C313.658 431.278 314.018 431.554 314.294 431.95C314.582 432.334 314.726 432.808 314.726 433.372V438.808C314.726 439.204 314.9 439.402 315.248 439.402C315.356 439.402 315.53 439.378 315.77 439.33V440.5C315.314 440.62 315.026 440.68 314.906 440.68C314.57 440.68 314.288 440.638 314.06 440.554C313.832 440.482 313.658 440.368 313.538 440.212C313.43 440.056 313.352 439.906 313.304 439.762C313.268 439.618 313.238 439.438 313.214 439.222C312.938 439.51 312.68 439.75 312.44 439.942C312.2 440.134 311.84 440.32 311.36 440.5C310.88 440.68 310.352 440.77 309.776 440.77C308.9 440.77 308.186 440.518 307.634 440.014C307.082 439.51 306.806 438.844 306.806 438.016C306.806 437.74 306.824 437.494 306.86 437.278C306.896 437.062 306.986 436.816 307.13 436.54C307.274 436.252 307.466 436.012 307.706 435.82C307.958 435.616 308.318 435.436 308.786 435.28C309.254 435.112 309.806 435.004 310.442 434.956C311.294 434.884 311.9 434.806 312.26 434.722C312.632 434.626 312.866 434.5 312.962 434.344C313.07 434.188 313.124 433.93 313.124 433.57C313.124 432.55 312.386 432.04 310.91 432.04C310.478 432.04 310.112 432.1 309.812 432.22C309.524 432.328 309.308 432.49 309.164 432.706C309.032 432.91 308.936 433.102 308.876 433.282C308.816 433.45 308.774 433.648 308.75 433.876ZM313.124 437.206V435.64C312.86 435.844 311.984 436.042 310.496 436.234C310.232 436.27 310.004 436.312 309.812 436.36C309.632 436.408 309.422 436.486 309.182 436.594C308.942 436.69 308.756 436.84 308.624 437.044C308.504 437.236 308.444 437.476 308.444 437.764C308.444 438.88 309.026 439.438 310.19 439.438C310.958 439.438 311.636 439.222 312.224 438.79C312.824 438.358 313.124 437.83 313.124 437.206ZM321.63 432.148C321.162 432.148 320.754 432.238 320.406 432.418C320.07 432.586 319.812 432.79 319.632 433.03C319.464 433.27 319.326 433.57 319.218 433.93C319.122 434.29 319.062 434.596 319.038 434.848C319.026 435.1 319.02 435.388 319.02 435.712C319.02 436.804 319.236 437.692 319.668 438.376C320.1 439.048 320.736 439.384 321.576 439.384C322.212 439.384 322.788 439.132 323.304 438.628C323.832 438.124 324.096 437.302 324.096 436.162C324.096 435.85 324.084 435.568 324.06 435.316C324.048 435.064 324.018 434.77 323.97 434.434C323.922 434.098 323.838 433.81 323.718 433.57C323.61 433.318 323.466 433.078 323.286 432.85C323.118 432.622 322.89 432.448 322.602 432.328C322.326 432.208 322.002 432.148 321.63 432.148ZM317.418 444.262V430.978H318.912V432.328C319.248 431.824 319.626 431.428 320.046 431.14C320.466 430.852 321.048 430.708 321.792 430.708C323.016 430.708 323.976 431.152 324.672 432.04C325.38 432.928 325.734 434.068 325.734 435.46C325.734 435.952 325.692 436.432 325.608 436.9C325.536 437.356 325.398 437.824 325.194 438.304C325.002 438.784 324.756 439.204 324.456 439.564C324.156 439.912 323.76 440.2 323.268 440.428C322.776 440.656 322.218 440.77 321.594 440.77C320.418 440.77 319.56 440.308 319.02 439.384V444.262H317.418ZM326.499 430.978H334.365V432.31H331.233V440.5H329.631V432.31H326.499V430.978ZM337.372 430.978V438.106H337.408L342.07 430.978H343.744V440.5H342.142V433.372H342.106L337.444 440.5H335.77V430.978H337.372ZM347.69 430.978V434.812H352.136V430.978H353.738V440.5H352.136V436.144H347.69V440.5H346.088V430.978H347.69ZM357.674 430.978V435.118L361.76 430.978H363.794L360.158 434.524L364.01 440.5H362.102L359.024 435.64L357.674 436.9V440.5H356.072V430.978H357.674ZM366.833 430.978V438.106H366.869L371.531 430.978H373.205V440.5H371.603V433.372H371.567L366.905 440.5H365.231V430.978H366.833ZM388.19 434.182H386.642C386.426 432.826 385.676 432.148 384.392 432.148C383.768 432.148 383.252 432.34 382.844 432.724C382.436 433.096 382.154 433.534 381.998 434.038C381.854 434.542 381.782 435.106 381.782 435.73C381.782 438.166 382.646 439.384 384.374 439.384C384.926 439.384 385.406 439.186 385.814 438.79C386.234 438.394 386.51 437.842 386.642 437.134H388.19C388.142 437.554 388.04 437.962 387.884 438.358C387.74 438.742 387.524 439.126 387.236 439.51C386.96 439.894 386.57 440.2 386.066 440.428C385.562 440.656 384.98 440.77 384.32 440.77C383.012 440.77 381.974 440.326 381.206 439.438C380.45 438.55 380.072 437.404 380.072 436C380.072 434.44 380.456 433.168 381.224 432.184C381.992 431.2 383.126 430.708 384.626 430.708C385.778 430.708 386.642 431.05 387.218 431.734C387.794 432.406 388.118 433.222 388.19 434.182ZM399.027 432.148C398.559 432.148 398.151 432.238 397.803 432.418C397.467 432.586 397.209 432.79 397.029 433.03C396.861 433.27 396.723 433.57 396.615 433.93C396.519 434.29 396.459 434.596 396.435 434.848C396.423 435.1 396.417 435.388 396.417 435.712C396.417 436.804 396.633 437.692 397.065 438.376C397.497 439.048 398.133 439.384 398.973 439.384C399.609 439.384 400.185 439.132 400.701 438.628C401.229 438.124 401.493 437.302 401.493 436.162C401.493 435.85 401.481 435.568 401.457 435.316C401.445 435.064 401.415 434.77 401.367 434.434C401.319 434.098 401.235 433.81 401.115 433.57C401.007 433.318 400.863 433.078 400.683 432.85C400.515 432.622 400.287 432.448 399.999 432.328C399.723 432.208 399.399 432.148 399.027 432.148ZM394.815 444.262V430.978H396.309V432.328C396.645 431.824 397.023 431.428 397.443 431.14C397.863 430.852 398.445 430.708 399.189 430.708C400.413 430.708 401.373 431.152 402.069 432.04C402.777 432.928 403.131 434.068 403.131 435.46C403.131 435.952 403.089 436.432 403.005 436.9C402.933 437.356 402.795 437.824 402.591 438.304C402.399 438.784 402.153 439.204 401.853 439.564C401.553 439.912 401.157 440.2 400.665 440.428C400.173 440.656 399.615 440.77 398.991 440.77C397.815 440.77 396.957 440.308 396.417 439.384V444.262H394.815ZM411.347 437.512H412.949C412.421 439.684 410.993 440.77 408.665 440.77C407.357 440.77 406.325 440.326 405.569 439.438C404.813 438.55 404.435 437.404 404.435 436C404.435 434.428 404.813 433.156 405.569 432.184C406.337 431.2 407.477 430.708 408.989 430.708C410.321 430.708 411.335 431.206 412.031 432.202C412.727 433.186 413.075 434.542 413.075 436.27H406.145C406.145 437.266 406.379 438.034 406.847 438.574C407.315 439.114 407.999 439.384 408.899 439.384C409.583 439.384 410.159 439.174 410.627 438.754C411.107 438.334 411.347 437.92 411.347 437.512ZM406.145 434.992H411.437C411.317 433.096 410.423 432.148 408.755 432.148C408.035 432.148 407.417 432.436 406.901 433.012C406.397 433.576 406.145 434.236 406.145 434.992ZM416.491 430.978V435.118L420.577 430.978H422.611L418.975 434.524L422.827 440.5H420.919L417.841 435.64L416.491 436.9V440.5H414.889V430.978H416.491ZM425.649 432.31V434.92H427.971C428.667 434.92 429.159 434.812 429.447 434.596C429.735 434.38 429.879 434.008 429.879 433.48C429.879 433.084 429.735 432.79 429.447 432.598C429.171 432.406 428.691 432.31 428.007 432.31H425.649ZM425.649 436.18V439.168H428.511C429.795 439.168 430.437 438.676 430.437 437.692C430.437 436.684 429.741 436.18 428.349 436.18H425.649ZM424.047 440.5V430.978H428.367C429.375 430.978 430.143 431.212 430.671 431.68C431.211 432.136 431.481 432.712 431.481 433.408C431.481 433.936 431.325 434.38 431.013 434.74C430.713 435.088 430.335 435.328 429.879 435.46C431.319 435.796 432.039 436.636 432.039 437.98C432.039 438.748 431.733 439.36 431.121 439.816C430.521 440.272 429.663 440.5 428.547 440.5H424.047ZM435.458 430.978V438.106H435.494L440.156 430.978H441.83V440.5H440.228V433.372H440.192L435.53 440.5H433.856V430.978H435.458ZM445.326 433.696H443.796C443.832 433.36 443.922 433.03 444.066 432.706C444.222 432.382 444.432 432.064 444.696 431.752C444.972 431.44 445.35 431.188 445.83 430.996C446.322 430.804 446.886 430.708 447.522 430.708C448.578 430.708 449.442 430.972 450.114 431.5C450.786 432.016 451.122 432.658 451.122 433.426C451.122 434.002 450.96 434.47 450.636 434.83C450.312 435.178 449.922 435.412 449.466 435.532C450.774 435.976 451.428 436.804 451.428 438.016C451.428 438.868 451.068 439.54 450.348 440.032C449.628 440.524 448.722 440.77 447.63 440.77C446.19 440.77 445.17 440.476 444.57 439.888C443.97 439.3 443.616 438.508 443.508 437.512H445.074C445.146 438.184 445.368 438.664 445.74 438.952C446.124 439.24 446.73 439.384 447.558 439.384C448.194 439.384 448.722 439.252 449.142 438.988C449.562 438.724 449.772 438.328 449.772 437.8C449.772 437.272 449.586 436.876 449.214 436.612C448.842 436.348 448.344 436.216 447.72 436.216H446.766V434.956H447.63C448.302 434.956 448.776 434.836 449.052 434.596C449.328 434.356 449.466 433.984 449.466 433.48C449.466 433 449.274 432.652 448.89 432.436C448.506 432.208 448.05 432.094 447.522 432.094C446.85 432.094 446.34 432.226 445.992 432.49C445.656 432.742 445.434 433.144 445.326 433.696ZM454.846 430.978V438.106H454.882L459.544 430.978H461.218V440.5H459.616V433.372H459.58L454.918 440.5H453.244V430.978H454.846ZM462.501 430.978H470.367V432.31H467.235V440.5H465.633V432.31H462.501V430.978ZM471.25 435.73C471.25 435.094 471.34 434.488 471.52 433.912C471.7 433.324 471.964 432.79 472.312 432.31C472.66 431.818 473.122 431.428 473.698 431.14C474.274 430.852 474.928 430.708 475.66 430.708C476.392 430.708 477.046 430.852 477.622 431.14C478.198 431.428 478.66 431.818 479.008 432.31C479.356 432.79 479.62 433.324 479.8 433.912C479.98 434.488 480.07 435.094 480.07 435.73C480.07 437.086 479.686 438.268 478.918 439.276C478.162 440.272 477.076 440.77 475.66 440.77C474.244 440.77 473.152 440.272 472.384 439.276C471.628 438.268 471.25 437.086 471.25 435.73ZM472.888 435.73C472.888 436.018 472.906 436.312 472.942 436.612C472.99 436.9 473.074 437.218 473.194 437.566C473.326 437.914 473.488 438.22 473.68 438.484C473.884 438.736 474.154 438.952 474.49 439.132C474.838 439.3 475.228 439.384 475.66 439.384C476.092 439.384 476.476 439.3 476.812 439.132C477.16 438.952 477.43 438.736 477.622 438.484C477.826 438.22 477.988 437.914 478.108 437.566C478.24 437.218 478.324 436.9 478.36 436.612C478.408 436.312 478.432 436.018 478.432 435.73C478.432 435.358 478.39 434.986 478.306 434.614C478.234 434.23 478.102 433.84 477.91 433.444C477.73 433.048 477.442 432.724 477.046 432.472C476.662 432.22 476.2 432.094 475.66 432.094C475.12 432.094 474.652 432.22 474.256 432.472C473.872 432.724 473.584 433.048 473.392 433.444C473.212 433.84 473.08 434.23 472.996 434.614C472.924 434.986 472.888 435.358 472.888 435.73ZM481.879 430.978H484.129L487.063 438.448L489.997 430.978H492.211V440.5H490.645V434.974L490.735 432.922H490.609L487.621 440.5H486.469L483.481 432.922H483.355C483.415 433.618 483.445 434.302 483.445 434.974V440.5H481.879V430.978ZM494.949 440.5V438.574H496.857V440.356C496.857 440.932 496.779 441.418 496.623 441.814C496.479 442.21 496.281 442.498 496.029 442.678C495.777 442.858 495.573 442.978 495.417 443.038C495.261 443.098 495.105 443.14 494.949 443.164V442.336C495.597 442.276 495.921 441.664 495.921 440.5H494.949ZM298.17 453.978H305.82V463.5H304.218V455.31H299.772V463.5H298.17V453.978ZM309.108 453.978H316.074V463.5H314.472V455.31H310.71V459.648C310.71 462.312 309.888 463.644 308.244 463.644C307.896 463.644 307.554 463.596 307.218 463.5V462.258C307.386 462.282 307.602 462.294 307.866 462.294C308.19 462.294 308.43 462.222 308.586 462.078C308.754 461.934 308.88 461.634 308.964 461.178C309.06 460.722 309.108 460.032 309.108 459.108V453.978ZM317.898 458.73C317.898 458.094 317.988 457.488 318.168 456.912C318.348 456.324 318.612 455.79 318.96 455.31C319.308 454.818 319.77 454.428 320.346 454.14C320.922 453.852 321.576 453.708 322.308 453.708C323.04 453.708 323.694 453.852 324.27 454.14C324.846 454.428 325.308 454.818 325.656 455.31C326.004 455.79 326.268 456.324 326.448 456.912C326.628 457.488 326.718 458.094 326.718 458.73C326.718 460.086 326.334 461.268 325.566 462.276C324.81 463.272 323.724 463.77 322.308 463.77C320.892 463.77 319.8 463.272 319.032 462.276C318.276 461.268 317.898 460.086 317.898 458.73ZM319.536 458.73C319.536 459.018 319.554 459.312 319.59 459.612C319.638 459.9 319.722 460.218 319.842 460.566C319.974 460.914 320.136 461.22 320.328 461.484C320.532 461.736 320.802 461.952 321.138 462.132C321.486 462.3 321.876 462.384 322.308 462.384C322.74 462.384 323.124 462.3 323.46 462.132C323.808 461.952 324.078 461.736 324.27 461.484C324.474 461.22 324.636 460.914 324.756 460.566C324.888 460.218 324.972 459.9 325.008 459.612C325.056 459.312 325.08 459.018 325.08 458.73C325.08 458.358 325.038 457.986 324.954 457.614C324.882 457.23 324.75 456.84 324.558 456.444C324.378 456.048 324.09 455.724 323.694 455.472C323.31 455.22 322.848 455.094 322.308 455.094C321.768 455.094 321.3 455.22 320.904 455.472C320.52 455.724 320.232 456.048 320.04 456.444C319.86 456.84 319.728 457.23 319.644 457.614C319.572 457.986 319.536 458.358 319.536 458.73ZM330.129 453.978V462.168H334.125V453.978H335.727V462.168H339.723V453.978H341.325V462.168H342.387V466.29H340.929V463.5H328.527V453.978H330.129ZM345.453 456.876H343.977C343.977 454.764 345.285 453.708 347.901 453.708C348.177 453.708 348.471 453.738 348.783 453.798C349.107 453.846 349.485 453.954 349.917 454.122C350.361 454.278 350.721 454.554 350.997 454.95C351.285 455.334 351.429 455.808 351.429 456.372V461.808C351.429 462.204 351.603 462.402 351.951 462.402C352.059 462.402 352.233 462.378 352.473 462.33V463.5C352.017 463.62 351.729 463.68 351.609 463.68C351.273 463.68 350.991 463.638 350.763 463.554C350.535 463.482 350.361 463.368 350.241 463.212C350.133 463.056 350.055 462.906 350.007 462.762C349.971 462.618 349.941 462.438 349.917 462.222C349.641 462.51 349.383 462.75 349.143 462.942C348.903 463.134 348.543 463.32 348.063 463.5C347.583 463.68 347.055 463.77 346.479 463.77C345.603 463.77 344.889 463.518 344.337 463.014C343.785 462.51 343.509 461.844 343.509 461.016C343.509 460.74 343.527 460.494 343.563 460.278C343.599 460.062 343.689 459.816 343.833 459.54C343.977 459.252 344.169 459.012 344.409 458.82C344.661 458.616 345.021 458.436 345.489 458.28C345.957 458.112 346.509 458.004 347.145 457.956C347.997 457.884 348.603 457.806 348.963 457.722C349.335 457.626 349.569 457.5 349.665 457.344C349.773 457.188 349.827 456.93 349.827 456.57C349.827 455.55 349.089 455.04 347.613 455.04C347.181 455.04 346.815 455.1 346.515 455.22C346.227 455.328 346.011 455.49 345.867 455.706C345.735 455.91 345.639 456.102 345.579 456.282C345.519 456.45 345.477 456.648 345.453 456.876ZM349.827 460.206V458.64C349.563 458.844 348.687 459.042 347.199 459.234C346.935 459.27 346.707 459.312 346.515 459.36C346.335 459.408 346.125 459.486 345.885 459.594C345.645 459.69 345.459 459.84 345.327 460.044C345.207 460.236 345.147 460.476 345.147 460.764C345.147 461.88 345.729 462.438 346.893 462.438C347.661 462.438 348.339 462.222 348.927 461.79C349.527 461.358 349.827 460.83 349.827 460.206ZM355.255 453.978H361.915V462.168H362.977V466.29H361.519V463.5H354.589V466.29H353.131V462.168H354.193C354.901 460.836 355.255 459.138 355.255 457.074V453.978ZM360.313 462.168V455.31H356.803V457.038C356.803 459.114 356.485 460.824 355.849 462.168H360.313ZM366.077 453.978V458.118L370.163 453.978H372.197L368.561 457.524L372.413 463.5H370.505L367.427 458.64L366.077 459.9V463.5H364.475V453.978H366.077ZM375.055 456.876H373.579C373.579 454.764 374.887 453.708 377.503 453.708C377.779 453.708 378.073 453.738 378.385 453.798C378.709 453.846 379.087 453.954 379.519 454.122C379.963 454.278 380.323 454.554 380.599 454.95C380.887 455.334 381.031 455.808 381.031 456.372V461.808C381.031 462.204 381.205 462.402 381.553 462.402C381.661 462.402 381.835 462.378 382.075 462.33V463.5C381.619 463.62 381.331 463.68 381.211 463.68C380.875 463.68 380.593 463.638 380.365 463.554C380.137 463.482 379.963 463.368 379.843 463.212C379.735 463.056 379.657 462.906 379.609 462.762C379.573 462.618 379.543 462.438 379.519 462.222C379.243 462.51 378.985 462.75 378.745 462.942C378.505 463.134 378.145 463.32 377.665 463.5C377.185 463.68 376.657 463.77 376.081 463.77C375.205 463.77 374.491 463.518 373.939 463.014C373.387 462.51 373.111 461.844 373.111 461.016C373.111 460.74 373.129 460.494 373.165 460.278C373.201 460.062 373.291 459.816 373.435 459.54C373.579 459.252 373.771 459.012 374.011 458.82C374.263 458.616 374.623 458.436 375.091 458.28C375.559 458.112 376.111 458.004 376.747 457.956C377.599 457.884 378.205 457.806 378.565 457.722C378.937 457.626 379.171 457.5 379.267 457.344C379.375 457.188 379.429 456.93 379.429 456.57C379.429 455.55 378.691 455.04 377.215 455.04C376.783 455.04 376.417 455.1 376.117 455.22C375.829 455.328 375.613 455.49 375.469 455.706C375.337 455.91 375.241 456.102 375.181 456.282C375.121 456.45 375.079 456.648 375.055 456.876ZM379.429 460.206V458.64C379.165 458.844 378.289 459.042 376.801 459.234C376.537 459.27 376.309 459.312 376.117 459.36C375.937 459.408 375.727 459.486 375.487 459.594C375.247 459.69 375.061 459.84 374.929 460.044C374.809 460.236 374.749 460.476 374.749 460.764C374.749 461.88 375.331 462.438 376.495 462.438C377.263 462.438 377.941 462.222 378.529 461.79C379.129 461.358 379.429 460.83 379.429 460.206ZM383.723 453.978H385.973L388.907 461.448L391.841 453.978H394.055V463.5H392.489V457.974L392.579 455.922H392.453L389.465 463.5H388.313L385.325 455.922H385.199C385.259 456.618 385.289 457.302 385.289 457.974V463.5H383.723V453.978ZM397.999 453.978V461.106H398.035L402.697 453.978H404.371V463.5H402.769V456.372H402.733L398.071 463.5H396.397V453.978H397.999ZM412.894 453.978H419.554V462.168H420.616V466.29H419.158V463.5H412.228V466.29H410.77V462.168H411.832C412.54 460.836 412.894 459.138 412.894 457.074V453.978ZM417.952 462.168V455.31H414.442V457.038C414.442 459.114 414.124 460.824 413.488 462.168H417.952ZM423.067 453.978H430.033V463.5H428.431V455.31H424.669V459.648C424.669 462.312 423.847 463.644 422.203 463.644C421.855 463.644 421.513 463.596 421.177 463.5V462.258C421.345 462.282 421.561 462.294 421.825 462.294C422.149 462.294 422.389 462.222 422.545 462.078C422.713 461.934 422.839 461.634 422.923 461.178C423.019 460.722 423.067 460.032 423.067 459.108V453.978ZM439.453 453.978V463.5H437.851V459.486H435.817L433.567 463.5H431.749L434.107 459.432C433.579 459.324 433.087 459.036 432.631 458.568C432.187 458.088 431.965 457.482 431.965 456.75C431.965 455.862 432.265 455.178 432.865 454.698C433.477 454.218 434.323 453.978 435.403 453.978H439.453ZM437.851 458.226V455.31H435.349C434.161 455.31 433.567 455.796 433.567 456.768C433.567 457.74 434.161 458.226 435.349 458.226H437.851ZM454.442 457.182H452.894C452.678 455.826 451.928 455.148 450.644 455.148C450.02 455.148 449.504 455.34 449.096 455.724C448.688 456.096 448.406 456.534 448.25 457.038C448.106 457.542 448.034 458.106 448.034 458.73C448.034 461.166 448.898 462.384 450.626 462.384C451.178 462.384 451.658 462.186 452.066 461.79C452.486 461.394 452.762 460.842 452.894 460.134H454.442C454.394 460.554 454.292 460.962 454.136 461.358C453.992 461.742 453.776 462.126 453.488 462.51C453.212 462.894 452.822 463.2 452.318 463.428C451.814 463.656 451.232 463.77 450.572 463.77C449.264 463.77 448.226 463.326 447.458 462.438C446.702 461.55 446.324 460.404 446.324 459C446.324 457.44 446.708 456.168 447.476 455.184C448.244 454.2 449.378 453.708 450.878 453.708C452.03 453.708 452.894 454.05 453.47 454.734C454.046 455.406 454.37 456.222 454.442 457.182ZM454.852 453.978H458.74V457.812H461.008C462.184 457.812 463.078 458.082 463.69 458.622C464.314 459.162 464.626 459.87 464.626 460.746C464.626 461.55 464.332 462.21 463.744 462.726C463.156 463.242 462.256 463.5 461.044 463.5H457.138V455.31H454.852V453.978ZM458.74 459.144V462.168H461.026C461.746 462.168 462.25 462.054 462.538 461.826C462.838 461.586 462.988 461.196 462.988 460.656C462.988 459.648 462.334 459.144 461.026 459.144H458.74ZM472.835 460.512H474.437C473.909 462.684 472.481 463.77 470.153 463.77C468.845 463.77 467.813 463.326 467.057 462.438C466.301 461.55 465.923 460.404 465.923 459C465.923 457.428 466.301 456.156 467.057 455.184C467.825 454.2 468.965 453.708 470.477 453.708C471.809 453.708 472.823 454.206 473.519 455.202C474.215 456.186 474.563 457.542 474.563 459.27H467.633C467.633 460.266 467.867 461.034 468.335 461.574C468.803 462.114 469.487 462.384 470.387 462.384C471.071 462.384 471.647 462.174 472.115 461.754C472.595 461.334 472.835 460.92 472.835 460.512ZM467.633 457.992H472.925C472.805 456.096 471.911 455.148 470.243 455.148C469.523 455.148 468.905 455.436 468.389 456.012C467.885 456.576 467.633 457.236 467.633 457.992ZM476.377 453.978H478.627L481.561 461.448L484.495 453.978H486.709V463.5H485.143V457.974L485.233 455.922H485.107L482.119 463.5H480.967L477.979 455.922H477.853C477.913 456.618 477.943 457.302 477.943 457.974V463.5H476.377V453.978ZM488.529 458.73C488.529 458.094 488.619 457.488 488.799 456.912C488.979 456.324 489.243 455.79 489.591 455.31C489.939 454.818 490.401 454.428 490.977 454.14C491.553 453.852 492.207 453.708 492.939 453.708C493.671 453.708 494.325 453.852 494.901 454.14C495.477 454.428 495.939 454.818 496.287 455.31C496.635 455.79 496.899 456.324 497.079 456.912C497.259 457.488 497.349 458.094 497.349 458.73C497.349 460.086 496.965 461.268 496.197 462.276C495.441 463.272 494.355 463.77 492.939 463.77C491.523 463.77 490.431 463.272 489.663 462.276C488.907 461.268 488.529 460.086 488.529 458.73ZM490.167 458.73C490.167 459.018 490.185 459.312 490.221 459.612C490.269 459.9 490.353 460.218 490.473 460.566C490.605 460.914 490.767 461.22 490.959 461.484C491.163 461.736 491.433 461.952 491.769 462.132C492.117 462.3 492.507 462.384 492.939 462.384C493.371 462.384 493.755 462.3 494.091 462.132C494.439 461.952 494.709 461.736 494.901 461.484C495.105 461.22 495.267 460.914 495.387 460.566C495.519 460.218 495.603 459.9 495.639 459.612C495.687 459.312 495.711 459.018 495.711 458.73C495.711 458.358 495.669 457.986 495.585 457.614C495.513 457.23 495.381 456.84 495.189 456.444C495.009 456.048 494.721 455.724 494.325 455.472C493.941 455.22 493.479 455.094 492.939 455.094C492.399 455.094 491.931 455.22 491.535 455.472C491.151 455.724 490.863 456.048 490.671 456.444C490.491 456.84 490.359 457.23 490.275 457.614C490.203 457.986 490.167 458.358 490.167 458.73ZM500.76 453.978V458.118L504.846 453.978H506.88L503.244 457.524L507.096 463.5H505.188L502.11 458.64L500.76 459.9V463.5H499.158V453.978H500.76ZM299.772 476.978V484.106H299.808L304.47 476.978H306.144V486.5H304.542V479.372H304.506L299.844 486.5H298.17V476.978H299.772ZM315.135 476.978V481.118L319.221 476.978H321.255L317.619 480.524L321.471 486.5H319.563L316.485 481.64L315.135 482.9V486.5H313.533V476.978H315.135ZM321.765 481.73C321.765 481.094 321.855 480.488 322.035 479.912C322.215 479.324 322.479 478.79 322.827 478.31C323.175 477.818 323.637 477.428 324.213 477.14C324.789 476.852 325.443 476.708 326.175 476.708C326.907 476.708 327.561 476.852 328.137 477.14C328.713 477.428 329.175 477.818 329.523 478.31C329.871 478.79 330.135 479.324 330.315 479.912C330.495 480.488 330.585 481.094 330.585 481.73C330.585 483.086 330.201 484.268 329.433 485.276C328.677 486.272 327.591 486.77 326.175 486.77C324.759 486.77 323.667 486.272 322.899 485.276C322.143 484.268 321.765 483.086 321.765 481.73ZM323.403 481.73C323.403 482.018 323.421 482.312 323.457 482.612C323.505 482.9 323.589 483.218 323.709 483.566C323.841 483.914 324.003 484.22 324.195 484.484C324.399 484.736 324.669 484.952 325.005 485.132C325.353 485.3 325.743 485.384 326.175 485.384C326.607 485.384 326.991 485.3 327.327 485.132C327.675 484.952 327.945 484.736 328.137 484.484C328.341 484.22 328.503 483.914 328.623 483.566C328.755 483.218 328.839 482.9 328.875 482.612C328.923 482.312 328.947 482.018 328.947 481.73C328.947 481.358 328.905 480.986 328.821 480.614C328.749 480.23 328.617 479.84 328.425 479.444C328.245 479.048 327.957 478.724 327.561 478.472C327.177 478.22 326.715 478.094 326.175 478.094C325.635 478.094 325.167 478.22 324.771 478.472C324.387 478.724 324.099 479.048 323.907 479.444C323.727 479.84 323.595 480.23 323.511 480.614C323.439 480.986 323.403 481.358 323.403 481.73ZM339.991 480.182H338.443C338.227 478.826 337.477 478.148 336.193 478.148C335.569 478.148 335.053 478.34 334.645 478.724C334.237 479.096 333.955 479.534 333.799 480.038C333.655 480.542 333.583 481.106 333.583 481.73C333.583 484.166 334.447 485.384 336.175 485.384C336.727 485.384 337.207 485.186 337.615 484.79C338.035 484.394 338.311 483.842 338.443 483.134H339.991C339.943 483.554 339.841 483.962 339.685 484.358C339.541 484.742 339.325 485.126 339.037 485.51C338.761 485.894 338.371 486.2 337.867 486.428C337.363 486.656 336.781 486.77 336.121 486.77C334.813 486.77 333.775 486.326 333.007 485.438C332.251 484.55 331.873 483.404 331.873 482C331.873 480.44 332.257 479.168 333.025 478.184C333.793 477.2 334.927 476.708 336.427 476.708C337.579 476.708 338.443 477.05 339.019 477.734C339.595 478.406 339.919 479.222 339.991 480.182ZM340.772 476.978H348.638V478.31H345.506V486.5H343.904V478.31H340.772V476.978ZM351.645 476.978V480.812H353.535C353.691 479.612 354.117 478.628 354.813 477.86C355.509 477.092 356.487 476.708 357.747 476.708C358.479 476.708 359.121 476.852 359.673 477.14C360.237 477.428 360.681 477.818 361.005 478.31C361.329 478.802 361.569 479.336 361.725 479.912C361.893 480.488 361.977 481.094 361.977 481.73C361.977 482.366 361.893 482.972 361.725 483.548C361.569 484.124 361.329 484.658 361.005 485.15C360.681 485.642 360.237 486.032 359.673 486.32C359.121 486.608 358.479 486.752 357.747 486.752C356.415 486.752 355.401 486.308 354.705 485.42C354.021 484.532 353.631 483.44 353.535 482.144H351.645V486.5H350.043V476.978H351.645ZM355.263 480.614C355.203 480.962 355.173 481.334 355.173 481.73C355.173 482.126 355.203 482.504 355.263 482.864C355.323 483.212 355.431 483.596 355.587 484.016C355.755 484.424 356.019 484.754 356.379 485.006C356.751 485.246 357.207 485.366 357.747 485.366C358.287 485.366 358.737 485.246 359.097 485.006C359.469 484.754 359.733 484.424 359.889 484.016C360.057 483.596 360.171 483.212 360.231 482.864C360.291 482.504 360.321 482.126 360.321 481.73C360.321 481.346 360.285 480.974 360.213 480.614C360.141 480.242 360.021 479.858 359.853 479.462C359.685 479.054 359.421 478.724 359.061 478.472C358.701 478.22 358.263 478.094 357.747 478.094C357.207 478.094 356.751 478.22 356.379 478.472C356.019 478.712 355.755 479.042 355.587 479.462C355.431 479.87 355.323 480.254 355.263 480.614ZM363.789 476.978H366.039L368.973 484.448L371.907 476.978H374.121V486.5H372.555V480.974L372.645 478.922H372.519L369.531 486.5H368.379L365.391 478.922H365.265C365.325 479.618 365.355 480.302 365.355 480.974V486.5H363.789V476.978ZM377.885 479.876H376.409C376.409 477.764 377.717 476.708 380.333 476.708C380.609 476.708 380.903 476.738 381.215 476.798C381.539 476.846 381.917 476.954 382.349 477.122C382.793 477.278 383.153 477.554 383.429 477.95C383.717 478.334 383.861 478.808 383.861 479.372V484.808C383.861 485.204 384.035 485.402 384.383 485.402C384.491 485.402 384.665 485.378 384.905 485.33V486.5C384.449 486.62 384.161 486.68 384.041 486.68C383.705 486.68 383.423 486.638 383.195 486.554C382.967 486.482 382.793 486.368 382.673 486.212C382.565 486.056 382.487 485.906 382.439 485.762C382.403 485.618 382.373 485.438 382.349 485.222C382.073 485.51 381.815 485.75 381.575 485.942C381.335 486.134 380.975 486.32 380.495 486.5C380.015 486.68 379.487 486.77 378.911 486.77C378.035 486.77 377.321 486.518 376.769 486.014C376.217 485.51 375.941 484.844 375.941 484.016C375.941 483.74 375.959 483.494 375.995 483.278C376.031 483.062 376.121 482.816 376.265 482.54C376.409 482.252 376.601 482.012 376.841 481.82C377.093 481.616 377.453 481.436 377.921 481.28C378.389 481.112 378.941 481.004 379.577 480.956C380.429 480.884 381.035 480.806 381.395 480.722C381.767 480.626 382.001 480.5 382.097 480.344C382.205 480.188 382.259 479.93 382.259 479.57C382.259 478.55 381.521 478.04 380.045 478.04C379.613 478.04 379.247 478.1 378.947 478.22C378.659 478.328 378.443 478.49 378.299 478.706C378.167 478.91 378.071 479.102 378.011 479.282C377.951 479.45 377.909 479.648 377.885 479.876ZM382.259 483.206V481.64C381.995 481.844 381.119 482.042 379.631 482.234C379.367 482.27 379.139 482.312 378.947 482.36C378.767 482.408 378.557 482.486 378.317 482.594C378.077 482.69 377.891 482.84 377.759 483.044C377.639 483.236 377.579 483.476 377.579 483.764C377.579 484.88 378.161 485.438 379.325 485.438C380.093 485.438 380.771 485.222 381.359 484.79C381.959 484.358 382.259 483.83 382.259 483.206ZM386.553 476.978H388.803L391.737 484.448L394.671 476.978H396.885V486.5H395.319V480.974L395.409 478.922H395.283L392.295 486.5H391.143L388.155 478.922H388.029C388.089 479.618 388.119 480.302 388.119 480.974V486.5H386.553V476.978ZM400.829 476.978V484.106H400.865L405.527 476.978H407.201V486.5H405.599V479.372H405.563L400.901 486.5H399.227V476.978H400.829ZM411.849 484.574V486.5H409.941V484.574H411.849Z" fill="white"/>
<defs>
<filter id="filter0_d_344_286" x="0.605469" y="0.5" width="859.789" height="858.582" filterUnits="userSpaceOnUse" color-interpolation-filters="sRGB">
<feFlood flood-opacity="0" result="BackgroundImageFix"/>
<feColorMatrix in="SourceAlpha" type="matrix" values="0 0 0 0 0 0 0 0 0 0 0 0 0 0 0 0 0 0 127 0" result="hardAlpha"/>
<feOffset/>
<feGaussianBlur stdDeviation="107"/>
<feComposite in2="hardAlpha" operator="out"/>
<feColorMatrix type="matrix" values="0 0 0 0 0.905882 0 0 0 0 0.25098 0 0 0 0 0.117647 0 0 0 1 0"/>
<feBlend mode="normal" in2="BackgroundImageFix" result="effect1_dropShadow_344_286"/>
<feBlend mode="normal" in="SourceGraphic" in2="effect1_dropShadow_344_286" result="shape"/>
</filter>
</defs>
</svg>
