<svg width="265" height="117" viewBox="0 0 265 117" fill="none" xmlns="http://www.w3.org/2000/svg">
<path d="M36.6 43.5H41.76L39.24 3.06H32.58L25.38 22.62C23.58 27.72 22.14 32.16 21.06 36.24H20.94C19.86 32.04 18.54 27.6 16.86 22.62L9.96 3.06H3.3L0.48 43.5H5.46L6.54 26.16C6.9 20.04 7.2 13.32 7.32 8.28H7.44C8.58 13.08 10.14 18.24 12.06 24L18.66 43.26H22.62L29.76 23.64C31.8 18.06 33.42 12.96 34.86 8.28H34.98C34.98 13.26 35.34 20.1 35.64 25.74L36.6 43.5ZM46.1728 14.46L56.8528 41.22C57.1528 41.88 57.2728 42.3 57.2728 42.6C57.2728 42.9 57.0928 43.32 56.8528 43.86C55.5928 46.56 53.8528 48.6 52.4128 49.74C50.8528 51.06 49.1128 51.9 47.7928 52.32L49.1128 56.7C50.4328 56.46 52.9528 55.56 55.5928 53.34C59.1928 50.16 61.7728 45.12 65.5528 35.16L73.4728 14.46H67.8928L62.1328 31.5C61.4128 33.6 60.8128 35.82 60.2728 37.56H60.1528C59.6728 35.82 58.9528 33.54 58.2328 31.62L51.9328 14.46H46.1728ZM78.255 43.5H83.535V28.02C83.535 27.18 83.595 26.28 83.715 25.56C84.435 21.6 87.075 18.84 90.795 18.84C91.515 18.84 92.055 18.84 92.595 18.96V13.98C92.115 13.92 91.695 13.86 91.155 13.86C87.615 13.86 84.375 16.32 83.055 20.22H82.875L82.635 14.46H78.015C78.195 17.16 78.255 20.1 78.255 23.52V43.5ZM103.398 43.5V14.46H98.1183V43.5H103.398ZM100.758 3C98.7783 3 97.4583 4.5 97.4583 6.3C97.4583 8.1 98.7183 9.54 100.638 9.54C102.738 9.54 103.998 8.1 103.998 6.3C103.998 4.44 102.678 3 100.758 3ZM132.581 25.68C132.581 19.92 130.421 13.86 121.541 13.86C117.881 13.86 114.341 14.88 111.941 16.38L113.141 19.92C115.181 18.54 118.001 17.76 120.761 17.76C126.701 17.7 127.361 22.08 127.361 24.42V25.02C116.141 24.96 109.901 28.8 109.901 35.82C109.901 40.02 112.901 44.16 118.781 44.16C122.921 44.16 126.041 42.12 127.661 39.84H127.841L128.261 43.5H133.001C132.701 41.52 132.581 39.06 132.581 36.54V25.68ZM127.481 33.72C127.481 34.2 127.421 34.8 127.241 35.4C126.401 37.86 123.941 40.26 120.101 40.26C117.461 40.26 115.181 38.7 115.181 35.22C115.181 29.58 121.721 28.56 127.481 28.68V33.72ZM160.926 0.899998V18.24H160.806C159.486 15.96 156.546 13.86 152.046 13.86C145.026 13.86 138.966 19.74 139.026 29.4C139.026 38.22 144.486 44.16 151.506 44.16C156.246 44.16 159.726 41.7 161.286 38.46H161.466L161.706 43.5H166.386C166.266 41.52 166.146 38.58 166.146 36V0.899998H160.926ZM160.926 31.32C160.926 32.16 160.866 32.88 160.686 33.6C159.726 37.5 156.486 39.9 152.946 39.9C147.306 39.9 144.366 35.04 144.366 29.16C144.366 22.8 147.606 18 153.066 18C157.026 18 159.906 20.76 160.686 24.06C160.866 24.72 160.926 25.62 160.926 26.28V31.32ZM187.888 43.5H193.108V27.3C194.308 27.6 195.748 27.66 197.308 27.66C202.408 27.66 206.848 26.16 209.668 23.22C211.708 21.12 212.788 18.24 212.788 14.58C212.788 10.98 211.408 8.04 209.248 6.12C206.848 3.96 203.068 2.76 197.908 2.76C193.708 2.76 190.408 3.12 187.888 3.54V43.5ZM193.108 7.32C194.008 7.08 195.748 6.9 198.028 6.9C203.728 6.9 207.568 9.48 207.568 14.88C207.568 20.34 203.728 23.46 197.428 23.46C195.688 23.46 194.248 23.34 193.108 23.04V7.32ZM218.704 43.5H223.984V28.02C223.984 27.18 224.044 26.28 224.164 25.56C224.884 21.6 227.524 18.84 231.244 18.84C231.964 18.84 232.504 18.84 233.044 18.96V13.98C232.564 13.92 232.144 13.86 231.604 13.86C228.064 13.86 224.824 16.32 223.504 20.22H223.324L223.084 14.46H218.464C218.644 17.16 218.704 20.1 218.704 23.52V43.5ZM250.047 13.86C242.067 13.86 235.647 19.56 235.647 29.22C235.647 38.4 241.767 44.16 249.567 44.16C256.527 44.16 264.027 39.48 264.027 28.74C264.027 19.92 258.387 13.86 250.047 13.86ZM249.927 17.82C256.167 17.82 258.627 24 258.627 28.92C258.627 35.46 254.847 40.2 249.807 40.2C244.647 40.2 241.047 35.4 241.047 29.04C241.047 23.58 243.747 17.82 249.927 17.82ZM1.38 103.5H6.66V88.02C6.66 87.18 6.72 86.28 6.84 85.56C7.56 81.6 10.2 78.84 13.92 78.84C14.64 78.84 15.18 78.84 15.72 78.96V73.98C15.24 73.92 14.82 73.86 14.28 73.86C10.74 73.86 7.5 76.32 6.18 80.22H6L5.76 74.46H1.14C1.32 77.16 1.38 80.1 1.38 83.52V103.5ZM43.763 89.94C43.883 89.34 43.943 88.56 43.943 87.48C43.943 82.14 41.483 73.86 31.943 73.86C23.483 73.86 18.323 80.7 18.323 89.46C18.323 98.22 23.663 104.16 32.603 104.16C37.223 104.16 40.463 103.14 42.323 102.3L41.363 98.52C39.443 99.36 37.103 100.02 33.323 100.02C27.983 100.02 23.483 97.08 23.363 89.94H43.763ZM23.423 86.16C23.843 82.5 26.123 77.64 31.523 77.64C37.463 77.64 38.903 82.86 38.843 86.16H23.423ZM75.3216 82.38C75.3216 78.9 75.3816 76.5 75.5616 74.46H70.8816L70.7016 78.84H70.5816C69.2616 76.44 66.5616 73.86 61.5216 73.86C54.8016 73.86 48.3816 79.38 48.3816 89.22C48.3816 97.26 53.5416 103.38 60.7416 103.38C65.2416 103.38 68.4216 101.22 69.9816 98.52H70.1016V101.7C70.1016 109.08 66.1416 111.9 60.7416 111.9C57.1416 111.9 54.1416 110.82 52.2216 109.56L50.9016 113.64C53.2416 115.2 57.0816 116.04 60.5616 116.04C64.2216 116.04 68.3016 115.14 71.1816 112.56C73.9416 109.98 75.3216 105.96 75.3216 99.24V82.38ZM70.0416 91.14C70.0416 92.04 69.9216 93.06 69.6216 93.96C68.5416 97.32 65.6016 99.36 62.3016 99.36C56.6616 99.36 53.7216 94.62 53.7216 88.92C53.7216 82.2 57.3216 77.94 62.3616 77.94C66.2616 77.94 68.7816 80.46 69.7416 83.58C69.9816 84.24 70.0416 85.02 70.0416 85.92V91.14ZM108.297 74.46H103.017V92.22C103.017 93.24 102.837 94.2 102.537 94.92C101.577 97.32 99.1172 99.78 95.5772 99.78C90.8372 99.78 89.0972 96 89.0972 90.48V74.46H83.8172V91.44C83.8172 101.58 89.2772 104.16 93.8372 104.16C98.9972 104.16 102.117 101.1 103.437 98.76H103.557L103.857 103.5H108.537C108.357 101.22 108.297 98.58 108.297 95.52V74.46ZM117.044 103.5H122.324V60.9H117.044V103.5ZM151.624 85.68C151.624 79.92 149.464 73.86 140.584 73.86C136.924 73.86 133.384 74.88 130.984 76.38L132.184 79.92C134.224 78.54 137.044 77.76 139.804 77.76C145.744 77.7 146.404 82.08 146.404 84.42V85.02C135.184 84.96 128.944 88.8 128.944 95.82C128.944 100.02 131.944 104.16 137.824 104.16C141.964 104.16 145.084 102.12 146.704 99.84H146.884L147.304 103.5H152.044C151.744 101.52 151.624 99.06 151.624 96.54V85.68ZM146.524 93.72C146.524 94.2 146.464 94.8 146.284 95.4C145.444 97.86 142.984 100.26 139.144 100.26C136.504 100.26 134.224 98.7 134.224 95.22C134.224 89.58 140.764 88.56 146.524 88.68V93.72ZM160.169 103.5H165.449V88.02C165.449 87.18 165.509 86.28 165.629 85.56C166.349 81.6 168.989 78.84 172.709 78.84C173.429 78.84 173.969 78.84 174.509 78.96V73.98C174.029 73.92 173.609 73.86 173.069 73.86C169.529 73.86 166.289 76.32 164.969 80.22H164.789L164.549 74.46H159.929C160.109 77.16 160.169 80.1 160.169 83.52V103.5Z" fill="white"/>
</svg>
