<svg width="288" height="105" viewBox="0 0 288 105" fill="none" xmlns="http://www.w3.org/2000/svg">
<path d="M35.82 43.5H44.7L42.54 3.06H30.54L26.28 16.5C24.9 21 23.52 26.34 22.44 31.02H22.2C21.3 26.28 20.1 21.24 18.78 16.56L14.82 3.06H2.64L0.0600002 43.5H8.52L9.3 28.14C9.54 23.1 9.78 16.86 9.96 11.4H10.08C11.1 16.68 12.42 22.44 13.74 27.24L18.06 42.84H25.2L30.12 27.06C31.68 22.32 33.36 16.56 34.68 11.4H34.8C34.8 17.28 34.98 23.16 35.16 28.02L35.82 43.5ZM48.1022 14.16L58.9022 41.04C59.2022 41.76 59.2622 42.18 59.2622 42.54C59.2622 42.9 59.0822 43.38 58.7822 43.86C57.9422 45.3 56.3822 46.8 55.0022 47.52C53.6222 48.3 52.1822 48.84 51.0422 49.08L53.0222 56.76C55.3022 56.52 58.6622 55.5 61.7822 52.74C65.0822 49.8 67.9022 45.18 72.1022 33.48L78.9422 14.16H69.2222L65.5622 28.56C65.1422 30.3 64.6622 32.46 64.3022 34.08H64.0622C63.7022 32.52 63.1022 30.3 62.6222 28.62L58.2422 14.16H48.1022ZM82.8084 43.5H91.9284V28.62C91.9284 27.9 91.9884 27.18 92.1084 26.58C92.7084 23.76 94.9884 21.96 98.3484 21.96C99.3684 21.96 100.088 22.08 100.808 22.2V13.62C100.148 13.5 99.7284 13.44 98.8884 13.44C96.0084 13.44 92.4684 15.24 90.9684 19.56H90.7284L90.3684 14.16H82.5684C82.7484 16.68 82.8084 19.5 82.8084 23.82V43.5ZM114.721 43.5V14.16H105.601V43.5H114.721ZM110.221 1.44C107.281 1.44 105.361 3.42 105.361 6C105.361 8.52 107.221 10.56 110.101 10.56C113.161 10.56 115.021 8.52 115.021 6C114.961 3.42 113.161 1.44 110.221 1.44ZM146.486 26.16C146.486 19.2 143.426 13.44 133.646 13.44C128.306 13.44 124.286 14.94 122.246 16.08L123.926 21.96C125.846 20.76 129.026 19.74 132.026 19.74C136.526 19.74 137.366 21.96 137.366 23.58V23.94C126.986 23.94 120.146 27.54 120.146 35.16C120.146 39.84 123.686 44.16 129.626 44.16C133.106 44.16 136.106 42.9 138.026 40.56H138.206L138.746 43.5H146.966C146.606 41.88 146.486 39.18 146.486 36.42V26.16ZM137.666 32.82C137.666 33.36 137.606 33.9 137.486 34.38C136.886 36.24 134.966 37.74 132.746 37.74C130.706 37.74 129.146 36.6 129.146 34.26C129.146 30.78 132.866 29.64 137.666 29.64V32.82ZM173.085 0.899998V16.74H172.965C171.645 14.76 168.885 13.44 165.225 13.44C158.205 13.44 152.025 19.2 152.085 29.1C152.085 38.22 157.665 44.16 164.625 44.16C168.405 44.16 172.005 42.48 173.805 39.24H173.985L174.345 43.5H182.445C182.325 41.52 182.205 38.04 182.205 34.74V0.899998H173.085ZM173.085 30.42C173.085 31.14 173.025 31.86 172.905 32.52C172.365 35.1 170.205 36.9 167.565 36.9C163.785 36.9 161.325 33.78 161.325 28.8C161.325 24.18 163.425 20.46 167.625 20.46C170.445 20.46 172.425 22.5 172.965 24.9C173.085 25.44 173.085 26.1 173.085 26.58V30.42ZM201.937 43.5H210.997V28.98C211.837 29.16 212.917 29.22 214.117 29.22C219.517 29.22 224.137 27.84 227.257 24.96C229.717 22.74 230.977 19.32 230.977 15.36C230.977 11.4 229.297 8.04 226.657 6C223.957 3.84 219.937 2.76 214.297 2.76C208.717 2.76 204.757 3.12 201.937 3.6V43.5ZM210.997 10.02C211.657 9.84 212.917 9.72 214.717 9.72C219.337 9.72 221.917 11.94 221.917 15.66C221.917 19.74 218.917 22.2 214.057 22.2C212.677 22.2 211.777 22.14 210.997 21.96V10.02ZM235.973 43.5H245.093V28.62C245.093 27.9 245.153 27.18 245.273 26.58C245.873 23.76 248.152 21.96 251.513 21.96C252.533 21.96 253.253 22.08 253.973 22.2V13.62C253.313 13.5 252.893 13.44 252.053 13.44C249.173 13.44 245.633 15.24 244.133 19.56H243.893L243.533 14.16H235.733C235.913 16.68 235.973 19.5 235.973 23.82V43.5ZM272.337 13.44C262.857 13.44 256.617 19.5 256.617 29.04C256.617 38.52 263.217 44.16 271.797 44.16C279.657 44.16 287.277 39.24 287.277 28.5C287.277 19.62 281.277 13.44 272.337 13.44ZM272.037 19.98C276.177 19.98 277.857 24.42 277.857 28.74C277.857 34.08 275.637 37.62 272.037 37.62C268.137 37.62 266.037 33.84 266.037 28.8C266.037 24.48 267.717 19.98 272.037 19.98ZM0.96 103.32C3 103.62 6.36 103.92 10.86 103.92C18.9 103.92 23.82 102.6 26.76 100.26C29.28 98.22 30.96 95.34 30.96 91.62C30.96 86.46 27.54 82.92 22.92 81.72V81.6C27.48 79.86 29.58 76.56 29.58 73.02C29.58 69.3 27.6 66.54 24.78 65.04C21.78 63.3 18.36 62.76 12.78 62.76C8.16 62.76 3.36 63.18 0.96 63.6V103.32ZM10.02 69.66C10.74 69.54 11.88 69.42 13.92 69.42C18.06 69.42 20.4 71.04 20.4 74.1C20.4 77.1 17.88 79.08 13.02 79.08H10.02V69.66ZM10.02 85.62H13.14C17.7 85.62 21.36 87.24 21.36 91.26C21.36 95.52 17.7 97.14 13.56 97.14C12 97.14 10.92 97.14 10.02 97.02V85.62ZM51.2625 73.44C41.7825 73.44 35.5425 79.5 35.5425 89.04C35.5425 98.52 42.1425 104.16 50.7225 104.16C58.5825 104.16 66.2025 99.24 66.2025 88.5C66.2025 79.62 60.2025 73.44 51.2625 73.44ZM50.9625 79.98C55.1025 79.98 56.7825 84.42 56.7825 88.74C56.7825 94.08 54.5625 97.62 50.9625 97.62C47.0625 97.62 44.9625 93.84 44.9625 88.8C44.9625 84.48 46.6425 79.98 50.9625 79.98ZM71.8514 103.5H80.9714V60.9H71.8514V103.5ZM107.695 60.9V76.74H107.575C106.255 74.76 103.495 73.44 99.8348 73.44C92.8148 73.44 86.6348 79.2 86.6948 89.1C86.6948 98.22 92.2748 104.16 99.2348 104.16C103.015 104.16 106.615 102.48 108.415 99.24H108.595L108.955 103.5H117.055C116.935 101.52 116.815 98.04 116.815 94.74V60.9H107.695ZM107.695 90.42C107.695 91.14 107.635 91.86 107.515 92.52C106.975 95.1 104.815 96.9 102.175 96.9C98.3948 96.9 95.9348 93.78 95.9348 88.8C95.9348 84.18 98.0348 80.46 102.235 80.46C105.055 80.46 107.035 82.5 107.575 84.9C107.695 85.44 107.695 86.1 107.695 86.58V90.42Z" fill="white"/>
</svg>
