<svg width="371" height="370" viewBox="0 0 371 370" fill="none" xmlns="http://www.w3.org/2000/svg">
<path d="M185.5 0.5L207.839 37.7901L240.177 8.74124L250.532 50.9592L289.996 32.7327L287.447 76.1273L330.53 70.3426L315.303 111.058L358.177 118.229L331.626 152.648L370.481 172.138L334.965 197.201L366.349 227.278L325.023 240.759L346.148 278.75L302.684 279.451L311.672 321.981L269.933 309.84L265.985 353.13L229.679 329.225L213.147 369.428L185.5 335.884L157.853 369.428L141.321 329.225L105.015 353.13L101.067 309.84L59.328 321.981L68.316 279.451L24.8523 278.75L45.9769 240.759L4.65088 227.278L36.0351 197.201L0.518692 172.138L39.3739 152.648L12.8229 118.229L55.6966 111.058L40.4703 70.3426L83.553 76.1273L81.0041 32.7327L120.468 50.9592L130.823 8.74124L163.161 37.7901L185.5 0.5Z" fill="#E7401E"/>
</svg>
